inDegrees=no
num_controls=7
num_derivatives=13
num_iterations=111
num_multipliers=7
num_parameters=0
num_slacks=7
num_states=26
objective=0.477173
objective_accelerations=0.044785
objective_balance=0.003743
objective_effort=0.040994
objective_height=0.381982
objective_ligament=0.005669
solver_duration=1544.079886
status=Solve_Succeeded
success=true
DataType=double
version=3
OpenSimVersion=4.5
endheader
time	/jointset/ground_pelvis/pelvis_tilt/value	/jointset/ground_pelvis/pelvis_tx/value	/jointset/ground_pelvis/pelvis_ty/value	/jointset/hip_l/hip_flexion_l/value	/jointset/hip_l/hip_adduction_l/value	/jointset/hip_l/hip_rotation_l/value	/jointset/back/lumbar_extension/value	/jointset/patellofemoral_l/patellar_flexion_l/value	/jointset/knee_l/knee_flexion_l/value	/jointset/knee_l/knee_adduction_l/value	/jointset/knee_l/knee_rotation_l/value	/jointset/ankle_l/ankle_angle_l/value	/jointset/subtalar_l/subtalar_angle_l/value	/jointset/ground_pelvis/pelvis_tilt/speed	/jointset/ground_pelvis/pelvis_tx/speed	/jointset/ground_pelvis/pelvis_ty/speed	/jointset/hip_l/hip_flexion_l/speed	/jointset/hip_l/hip_adduction_l/speed	/jointset/hip_l/hip_rotation_l/speed	/jointset/back/lumbar_extension/speed	/jointset/patellofemoral_l/patellar_flexion_l/speed	/jointset/knee_l/knee_flexion_l/speed	/jointset/knee_l/knee_adduction_l/speed	/jointset/knee_l/knee_rotation_l/speed	/jointset/ankle_l/ankle_angle_l/speed	/jointset/subtalar_l/subtalar_angle_l/speed	/forceset/tau_hip_flexion_l	/forceset/tau_hip_adduction_l	/forceset/tau_hip_rotation_l	/forceset/tau_knee_flexion_l	/forceset/tau_ankle_angle_l	/forceset/tau_subtalar_angle_l	/forceset/tau_lumbar_extension	lambda_cid13_p0	lambda_cid13_p1	lambda_cid13_p2	lambda_cid13_p3	lambda_cid13_p4	lambda_cid13_p5	lambda_cid14_p0	/jointset/ground_pelvis/pelvis_tilt/accel	/jointset/ground_pelvis/pelvis_tx/accel	/jointset/ground_pelvis/pelvis_ty/accel	/jointset/hip_l/hip_flexion_l/accel	/jointset/hip_l/hip_adduction_l/accel	/jointset/hip_l/hip_rotation_l/accel	/jointset/back/lumbar_extension/accel	/jointset/patellofemoral_l/patellar_flexion_l/accel	/jointset/knee_l/knee_flexion_l/accel	/jointset/knee_l/knee_adduction_l/accel	/jointset/knee_l/knee_rotation_l/accel	/jointset/ankle_l/ankle_angle_l/accel	/jointset/subtalar_l/subtalar_angle_l/accel	gamma_cid13_p0	gamma_cid13_p1	gamma_cid13_p2	gamma_cid13_p3	gamma_cid13_p4	gamma_cid13_p5	gamma_cid14_p0
0.5	-0.09984285921901531	-0.04502515260067246	0.8051581163859598	0.9415933419544532	-0.3287812751256271	-0.07839364086937446	-0.7912976920938146	0.9212200220692477	0.9212200220693231	-0.1020640465475156	-0.1733494418452478	0.1436920753898341	0.01241253996400724	-0.1415589725973103	-0.1628884452315496	-0.4207579107107873	1.622981834945847	-0.02811640697619115	0.5619669062418067	-0.8356470153800952	1.780148207450442	1.780148207450389	0.1518685379083422	0.00171539986053635	0.4194841454273474	0.1118002039253653	-0.2742647908870368	0.0234914886522283	-0.004866429816110147	-0.2483071721367197	0.09349287772326753	0.04254750276456359	0.3294399410451996	-14.20159176422169	-17.36734740571009	3.885746356735087	-10.25922953965387	-701.8180631252392	-72.09981253189507	-9.727618974268417	0.2982298453400403	0.6947632369876714	-0.189792634589564	-1.542383971275296	0.3217510475386339	-0.5208265002800376	1.912617233917917	-1.417546758532241	-1.417546758532274	-0.228036870180486	-0.02219564665348468	-0.2471047723023982	0.3310830673076269	-2.575095970719438e-07	-1.693033974587977e-07	1.5231104925267e-06	1.432262788137211e-07	-2.839052125159828e-07	-7.460508202100943e-08	-2.195103817139528e-07
0.51	-0.1012433134953051	-0.04661925648593229	0.8009419957070933	0.9577435528093404	-0.329047209174533	-0.07279912105506883	-0.7995576172603172	0.9389478323396711	0.9389478323397284	-0.1005593722997863	-0.1733333083993726	0.1478735398202852	0.01354578713551464	-0.1385088477940669	-0.1559294870422677	-0.4223689906706959	1.606831548499577	-0.02507989975739445	0.5568718576524783	-0.816246421088913	1.765158842910042	1.76515884291003	0.1490604924438557	0.001508467249685925	0.4167414369247728	0.114820574299931	-0.2806770664924441	0.02384448842865214	-0.005009505420873757	-0.251888134828606	0.09256776622787394	0.0425884997436114	0.3358461767053568	-14.76854016289098	-17.21853914833068	3.785097736504893	-10.06337959117964	-706.4931741371705	-71.89219503058567	-9.004784429575025	0.3118350915644594	0.6969178545789499	-0.1322353159697998	-1.685700776464832	0.2929705294135924	-0.5138243333880641	1.967520051390531	-1.577839013036479	-1.577839013030356	-0.3080562374465548	-0.02006635288478999	-0.2979474232375765	0.2830597879381458	-2.479902439097874e-07	-1.56548818549701e-07	1.489827350697966e-06	1.399647546994777e-07	-2.699862876906071e-07	-4.417739934747732e-08	-2.145594760080804e-07
0.52	-0.1026125802648126	-0.04814367964036315	0.7967126703007723	0.9737253908407325	-0.3292831041571786	-0.06725754778567881	-0.8076207885789736	0.9565181074224465	0.9565181074224779	-0.09908295207729156	-0.173319269136513	0.1520255584589104	0.01470834716384912	-0.1353214712409112	-0.1489522990657567	-0.4233988562017353	1.589307270246825	-0.02210859372406476	0.5513775972579996	-0.7962962458108487	1.748641169919939	1.748641169919968	0.1462177328648184	0.001296563255475878	0.413594987062095	0.1176627752907811	-0.2870893420978498	0.02419748820508518	-0.005152581025774217	-0.255469097520488	0.09164265473248386	0.04262949672267324	0.3422524123655132	-15.33751967955694	-17.06968032298233	3.684790877154962	-9.912822309073199	-711.2310895484185	-71.73707550104132	-8.284004780736893	0.3256801953224383	0.698409194433517	-0.07354974881571029	-1.817182332571814	0.308710810445221	-0.600668861310052	2.022533431294308	-1.723208448472716	-1.72320844847277	-0.2349796930906717	-0.02318992332540131	-0.3278530443229943	0.2954491905645276	-2.433122218462144e-07	-2.011953774352962e-07	1.442191593050769e-06	1.295098498481998e-07	-2.618965129274944e-07	-3.002259256475868e-08	-2.152103020150194e-07
0.53	-0.1039493301283473	-0.0495983016460148	0.7924759711618876	0.9895252453134789	-0.3294896529680937	-0.06177305480349123	-0.8154818967610106	0.9739156974498606	0.9739156974499206	-0.09763502684004746	-0.1733075711525135	0.1561441445506401	0.01589839314717371	-0.1320098153108267	-0.1419748602369193	-0.4238421694992414	1.570445957891848	-0.01921313141772648	0.5454590294358755	-0.7758510532785676	1.730633064078649	1.730633064078666	0.1433630141340306	0.00104196536157084	0.4100604730663178	0.1203157635406326	-0.2931788253473409	0.02440247963213658	-0.005250528856416593	-0.2592163573976121	0.09080639503054047	0.04253744087885702	0.3483429463104051	-15.87951406332196	-16.86050467639434	3.566577472166133	-9.687512421624261	-715.8563731480953	-71.51711894388733	-7.570935900511861	0.3366886782842731	0.6970223050083594	-0.01495333827735157	-1.953285222761525	0.2779861849637115	-0.5969453303050438	2.066662761840132	-1.876134264202174	-1.87613426420378	-0.3113816616362863	-0.02647331214373762	-0.3755165797113844	0.2454947547759624	-2.33723735485321e-07	-2.022558087787935e-07	1.397264139305604e-06	1.237640062852111e-07	-2.489559267847284e-07	-5.231753085730654e-09	-2.104724593318006e-07
0.54	-0.1052524073552942	-0.05098322704779812	0.7882377926464161	1.005129950755515	-0.3296676427070986	-0.05634964641705215	-0.8231363228981958	0.9911259018964145	0.9911259018964997	-0.09621578152982986	-0.173298394865394	0.1602255323019108	0.01711402323551293	-0.1285869439234342	-0.1350129782920925	-0.4236947315191151	1.550277464104838	-0.01639677934196588	0.539160678108094	-0.7549598368404847	1.71116405374756	1.711164053747567	0.140481747460705	0.0007922238788380942	0.4061553189702883	0.1227795962937044	-0.2992683085968325	0.02460747105919	-0.005348476687110075	-0.262963617274735	0.08997013532859795	0.04244538503504429	0.354433480255296	-16.42316772108486	-16.65418972980317	3.4524208166755	-9.512548683400409	-720.5345430360333	-71.35272631355267	-6.888886581153947	0.3479232867840016	0.6952978176314151	0.0446005067107681	-2.078618618978331	0.2928887643296794	-0.6766255624415287	2.111738212454677	-2.015389346432444	-2.015389346432364	-0.2402892815982365	-0.02221864109093782	-0.401981064373411	0.2576180912086152	-2.187023950082432e-07	-1.550932905012457e-07	1.355333106898858e-06	1.23228187977351e-07	-2.306484854985159e-07	3.132661192963981e-08	-1.997726853318114e-07
